<?xml version="1.0" standalone="no"?>
<!DOCTYPE svg PUBLIC "-//W3C//DTD SVG 20010904//EN"
 "http://www.w3.org/TR/2001/REC-SVG-20010904/DTD/svg10.dtd">
<svg version="1.0" xmlns="http://www.w3.org/2000/svg"
 width="512.000000pt" height="512.000000pt" viewBox="0 0 512.000000 512.000000"
 preserveAspectRatio="xMidYMid meet">

<g transform="translate(0.000000,512.000000) scale(0.100000,-0.100000)"
fill="#000000" stroke="none">
<path d="M380 5109 c-172 -34 -331 -192 -369 -367 -6 -29 -11 -132 -11 -228 0
-172 0 -175 25 -199 29 -30 64 -32 96 -6 23 19 24 24 29 218 5 175 8 203 27
245 30 66 96 133 162 165 l56 28 510 3 c281 2 700 0 933 -3 l422 -7 0 -498 c0
-471 1 -501 20 -561 32 -102 91 -167 197 -217 l58 -27 521 -3 522 -3 7 -82 c4
-45 5 -275 4 -512 -2 -236 0 -435 3 -441 4 -6 -141 -158 -327 -344 l-335 -335
-92 0 c-72 0 -102 -4 -133 -20 -92 -45 -165 -161 -165 -258 1 -87 20 -110 428
-520 213 -213 405 -400 426 -415 33 -23 52 -28 119 -31 l80 -3 -6 -57 c-7 -82
-41 -152 -98 -206 -78 -73 -123 -89 -266 -93 -88 -3 -123 -1 -123 7 0 21 -96
108 -132 120 l-35 12 -5 72 c-6 84 -29 135 -85 188 -81 78 -47 74 -628 77
-366 2 -532 0 -561 -8 -61 -17 -134 -77 -163 -135 -19 -35 -27 -69 -29 -120
l-4 -71 -44 -18 c-25 -10 -63 -39 -88 -67 l-45 -50 -438 3 -438 3 -56 26 c-76
36 -133 90 -166 157 l-28 57 -5 1731 c-5 1685 -6 1732 -24 1753 -28 31 -79 28
-105 -5 l-21 -27 0 -1711 c0 -1886 -4 -1764 62 -1888 36 -68 121 -150 196
-191 95 -51 149 -57 588 -57 l401 0 6 -54 c3 -30 13 -66 23 -81 31 -48 66 -55
269 -55 224 0 245 7 245 78 0 19 -8 40 -20 52 -18 18 -33 20 -195 20 l-175 0
0 35 c0 53 25 102 62 125 32 19 49 20 731 20 766 0 740 2 772 -60 8 -16 15
-49 15 -75 l0 -45 -470 0 c-457 0 -471 -1 -490 -20 -40 -40 -20 -112 33 -125
12 -3 244 -4 515 -3 l494 3 34 37 c29 32 34 45 34 88 l0 50 93 0 c196 0 337
70 437 215 54 79 73 146 77 280 4 104 8 126 29 168 30 56 41 142 25 188 -11
33 -11 34 61 106 l73 72 260 -331 c143 -182 282 -353 309 -380 131 -129 281
-138 440 -24 209 149 244 391 79 553 -26 27 -196 165 -376 307 l-329 259 74
73 73 74 40 -11 c194 -54 398 181 320 369 -20 48 -802 834 -859 864 -33 17
-52 20 -110 15 -39 -2 -79 -8 -88 -12 -16 -6 -17 20 -20 362 l-3 368 -33 67
c-29 60 -88 121 -647 676 -557 553 -622 614 -682 644 l-68 33 -940 2 c-517 0
-960 -3 -985 -8z m2945 -1149 l160 -161 -465 3 c-510 3 -492 1 -552 65 -58 61
-58 62 -58 549 l0 446 378 -370 c207 -204 449 -443 537 -532z m963 -1524 c386
-388 392 -395 392 -434 0 -62 -69 -132 -131 -132 -15 0 -75 52 -189 165 -182
180 -197 189 -245 140 -47 -46 -37 -66 102 -207 l127 -128 -329 -330 -330
-330 -323 323 -322 322 330 330 329 329 94 -92 c104 -102 129 -111 172 -67 47
46 37 65 -105 210 -115 117 -130 136 -130 166 0 65 65 129 130 129 33 0 59
-24 428 -394z m-1036 -1043 c433 -433 421 -418 379 -487 -24 -38 -71 -67 -112
-68 -28 -1 -72 40 -425 393 -217 217 -397 404 -400 417 -15 57 59 142 124 142
35 0 54 -17 434 -397z m1312 -194 c213 -168 364 -294 377 -315 48 -78 31 -169
-46 -248 -87 -90 -182 -111 -263 -58 -30 19 -127 133 -322 382 l-279 355 82
83 c45 45 85 82 89 82 4 0 167 -126 362 -281z m-1854 -552 c39 -20 70 -74 70
-123 l0 -44 -585 0 -585 0 0 46 c0 52 21 94 59 117 23 15 81 16 521 17 376 0
501 -3 520 -13z"/>
<path d="M734 3790 c-26 -10 -54 -48 -54 -71 0 -9 9 -28 21 -43 l20 -26 610 0
c596 0 609 0 629 20 27 27 26 81 -1 106 -20 18 -46 19 -613 21 -325 1 -601 -2
-612 -7z"/>
<path d="M714 3190 c-26 -10 -54 -48 -54 -71 0 -9 9 -28 21 -43 l20 -26 578 0
c647 0 621 -3 621 69 0 26 -7 44 -21 57 -20 18 -46 19 -583 21 -308 1 -571 -2
-582 -7z"/>
<path d="M2160 3193 c-34 -13 -50 -37 -50 -74 0 -71 -11 -69 486 -69 l443 0
20 26 c27 35 26 57 -3 91 l-24 28 -429 2 c-235 1 -435 -1 -443 -4z"/>
<path d="M714 2590 c-26 -10 -54 -48 -54 -71 0 -9 9 -28 21 -43 l20 -26 915 0
c901 0 914 0 934 20 25 25 26 71 1 101 l-19 24 -899 2 c-494 1 -908 -2 -919
-7z"/>
<path d="M734 1990 c-26 -10 -54 -48 -54 -71 0 -9 9 -28 21 -43 l20 -26 660 0
c646 0 659 0 679 20 27 27 26 81 -1 106 -20 18 -47 19 -663 21 -352 1 -651 -2
-662 -7z"/>
<path d="M714 1390 c-26 -10 -54 -48 -54 -71 0 -9 9 -28 21 -43 l20 -26 765 0
c751 0 764 0 784 20 25 25 26 71 1 101 l-19 24 -749 2 c-411 1 -758 -2 -769
-7z"/>
</g>
</svg>
