<?xml version="1.0" standalone="no"?>
<!DOCTYPE svg PUBLIC "-//W3C//DTD SVG 20010904//EN"
 "http://www.w3.org/TR/2001/REC-SVG-20010904/DTD/svg10.dtd">
<svg version="1.0" xmlns="http://www.w3.org/2000/svg"
 width="512.000000pt" height="512.000000pt" viewBox="0 0 512.000000 512.000000"
 preserveAspectRatio="xMidYMid meet">

<g transform="translate(0.000000,512.000000) scale(0.100000,-0.100000)"
fill="#000000" stroke="none">
<path d="M1749 5026 c-20 -7 -49 -22 -65 -34 -56 -40 -762 -758 -780 -792 -13
-26 -20 -67 -24 -160 -5 -124 -5 -125 -30 -128 -56 -6 -165 -35 -230 -62 -213
-88 -396 -276 -481 -494 -61 -157 -60 -119 -57 -1612 l3 -1360 37 -76 c45 -91
103 -147 196 -191 l67 -32 575 0 575 0 67 32 c92 43 151 101 194 189 31 63 37
85 42 163 l5 91 1563 0 c1400 0 1564 2 1564 15 0 9 -38 244 -84 523 -52 314
-87 553 -91 627 -17 308 -118 681 -251 924 l-35 64 234 236 c278 281 291 300
292 446 0 82 -3 96 -32 156 -63 127 -178 202 -313 203 -41 1 -87 -2 -102 -7
l-28 -7 0 546 c0 393 -3 558 -12 586 -6 22 -31 62 -55 88 -77 86 32 80 -1422
80 -1025 -1 -1293 -4 -1322 -14z m2626 -171 l25 -24 0 -598 0 -598 -257 -257
-258 -258 -210 0 c-228 0 -282 -8 -376 -56 -28 -14 -70 -43 -94 -65 l-42 -39
-582 0 -581 0 0 -1040 0 -1040 880 0 880 0 0 -80 0 -80 -960 0 -960 0 0 1194
c0 1313 1 1290 -61 1445 -86 215 -257 394 -465 486 -60 27 -185 62 -239 67
l-30 3 -3 83 -3 82 297 0 c204 0 310 4 338 12 55 16 138 99 154 154 8 28 12
134 12 338 l0 296 1255 0 1256 0 24 -25z m-2695 -330 l0 -236 -25 -24 -24 -25
-238 0 -238 0 260 260 c143 143 261 260 262 260 2 0 3 -106 3 -235z m-505
-799 c113 -36 198 -89 290 -181 91 -91 144 -175 182 -290 39 -117 39 -313 0
-430 -38 -115 -91 -199 -182 -290 -91 -91 -175 -144 -290 -182 -71 -23 -96
-26 -215 -26 -119 0 -144 3 -215 26 -114 38 -198 90 -290 182 -91 91 -144 175
-182 290 -23 71 -26 96 -26 215 0 119 3 144 26 215 38 115 91 199 182 290 112
112 235 179 379 205 89 16 251 5 341 -24z m3596 -154 c94 -49 134 -163 90
-257 -13 -27 -184 -204 -519 -539 l-500 -499 -4 139 c-3 125 -6 145 -29 194
-15 30 -40 69 -57 86 l-31 30 422 422 c265 264 435 427 457 436 55 24 111 20
171 -12z m-1125 -691 c-76 -76 -80 -79 -133 -83 -57 -5 -92 -25 -127 -71 -15
-21 -21 -49 -26 -118 -4 -80 -8 -93 -29 -110 -33 -27 -77 -24 -108 7 -25 25
-25 29 -21 122 6 114 29 174 93 237 75 75 131 93 305 94 l125 1 -79 -79z
m-593 -133 c-9 -35 -13 -90 -11 -160 l3 -108 -442 0 -443 0 0 160 0 160 454 0
453 0 -14 -52z m556 -136 c14 -10 34 -31 45 -46 20 -26 21 -42 24 -337 l3
-309 79 0 80 0 0 63 0 62 275 275 c219 219 277 272 285 260 19 -30 92 -201
121 -286 59 -171 97 -354 114 -556 l7 -77 -44 -11 c-24 -7 -198 -55 -388 -107
-293 -80 -348 -93 -365 -82 -47 29 -216 172 -239 202 -14 18 -38 60 -53 92
l-28 60 -3 414 -3 414 33 -7 c18 -3 44 -14 57 -24z m-3263 -201 l53 -53 3
-288 c3 -273 4 -290 24 -316 11 -15 33 -37 48 -48 27 -21 38 -21 486 -21 448
0 459 0 486 21 15 11 37 33 48 48 20 26 21 43 24 317 l3 289 53 53 c29 28 64
68 79 87 l27 35 0 -1044 c0 -790 -3 -1054 -12 -1085 -16 -55 -99 -138 -154
-154 -59 -17 -1049 -17 -1108 0 -55 16 -138 99 -154 154 -9 31 -12 295 -12
1085 l0 1044 27 -35 c15 -19 51 -59 79 -89z m3016 -343 l3 -263 -122 -125
-123 -125 -142 143 -143 142 245 245 c135 135 252 245 262 245 15 0 17 -24 20
-262z m-437 92 l-160 -160 -302 0 -303 0 0 160 0 160 462 0 463 0 -160 -160z
m-2260 55 c191 -73 399 -72 604 4 47 17 86 31 88 31 2 0 3 -92 3 -205 l0 -205
-400 0 -400 0 0 206 c0 192 1 206 18 201 9 -3 49 -18 87 -32z m1961 -392 c-4
-10 -32 -82 -63 -160 l-57 -143 -173 0 -173 0 0 160 0 160 236 0 c221 0 236
-1 230 -17z m239 -243 c60 -60 107 -111 104 -113 -11 -9 -266 -107 -278 -107
-20 0 -51 30 -51 49 0 19 103 281 110 281 3 0 55 -49 115 -110z m575 -245 l0
-295 -160 0 -160 0 0 159 c0 156 0 159 23 165 12 3 80 64 152 136 71 71 133
130 137 130 5 0 8 -133 8 -295z m1278 -212 c34 -208 62 -384 62 -390 0 -10
-93 -13 -430 -13 l-430 0 0 290 0 290 26 6 c14 4 177 48 362 99 186 52 339 94
342 94 3 1 33 -169 68 -376z m-959 60 l1 -143 -80 0 -80 0 0 205 0 206 79 -63
80 -63 0 -142z m-1250 131 c27 -50 68 -85 120 -103 66 -22 93 -16 279 58 l52
21 0 -125 0 -125 -400 0 -400 0 0 160 0 160 163 0 162 0 24 -46z"/>
<path d="M2000 4480 l0 -240 1120 0 1120 0 0 240 0 240 -1120 0 -1120 0 0
-240z m2080 0 l0 -80 -960 0 -960 0 0 80 0 80 960 0 960 0 0 -80z"/>
<path d="M2000 4000 l0 -80 1120 0 1120 0 0 80 0 80 -1120 0 -1120 0 0 -80z"/>
<path d="M2000 3680 l0 -80 1120 0 1120 0 0 80 0 80 -1120 0 -1120 0 0 -80z"/>
<path d="M2000 3360 l0 -80 640 0 640 0 0 80 0 80 -640 0 -640 0 0 -80z"/>
<path d="M880 3515 l0 -85 -37 -19 c-99 -50 -146 -169 -109 -274 26 -71 60
-102 176 -161 107 -55 130 -75 130 -114 0 -30 -42 -62 -81 -62 -54 0 -79 32
-79 103 l0 57 -80 0 -80 0 0 -67 c1 -106 43 -183 123 -224 l37 -19 0 -85 0
-85 80 0 80 0 0 85 0 85 38 19 c98 50 145 169 108 274 -26 71 -60 102 -176
161 -107 55 -130 75 -130 114 0 30 42 62 81 62 54 0 79 -32 79 -103 l0 -57 80
0 80 0 0 68 c-1 105 -43 182 -122 223 l-38 19 0 85 0 85 -80 0 -80 0 0 -85z"/>
<path d="M495 1506 c-41 -18 -83 -69 -90 -109 -3 -18 -5 -226 -3 -464 3 -418
4 -432 24 -459 11 -15 33 -37 48 -48 27 -21 38 -21 486 -21 448 0 459 0 486
21 15 11 37 33 48 48 21 27 21 38 21 486 0 448 0 459 -21 486 -11 15 -33 37
-48 48 -27 20 -40 21 -474 23 -356 2 -453 0 -477 -11z m225 -226 l0 -80 -80 0
-80 0 0 80 0 80 80 0 80 0 0 -80z m320 0 l0 -80 -80 0 -80 0 0 80 0 80 80 0
80 0 0 -80z m320 0 l0 -80 -80 0 -80 0 0 80 0 80 80 0 80 0 0 -80z m-640 -320
l0 -80 -80 0 -80 0 0 80 0 80 80 0 80 0 0 -80z m320 0 l0 -80 -80 0 -80 0 0
80 0 80 80 0 80 0 0 -80z m320 -160 l0 -240 -80 0 -80 0 0 240 0 240 80 0 80
0 0 -240z m-640 -160 l0 -80 -80 0 -80 0 0 80 0 80 80 0 80 0 0 -80z m320 0
l0 -80 -80 0 -80 0 0 80 0 80 80 0 80 0 0 -80z"/>
</g>
</svg>
